<?xml version="1.0" encoding="UTF-8"?>
<!DOCTYPE svg PUBLIC "-//W3C//DTD SVG 1.1//EN" "http://www.w3.org/Graphics/SVG/1.1/DTD/svg11.dtd">
<svg xmlns="http://www.w3.org/2000/svg" version="1.1" width="512px" height="512px" style="shape-rendering:geometricPrecision; text-rendering:geometricPrecision; image-rendering:optimizeQuality; fill-rule:evenodd; clip-rule:evenodd" xmlns:xlink="http://www.w3.org/1999/xlink">
<g><path style="opacity:1" fill="#d2ecd6" d="M 289.5,-0.5 C 295.167,-0.5 300.833,-0.5 306.5,-0.5C 309.428,0.816668 312.428,2.15 315.5,3.5C 315.5,92.8333 315.5,182.167 315.5,271.5C 304.167,271.5 292.833,271.5 281.5,271.5C 281.5,182.167 281.5,92.8333 281.5,3.5C 284.079,1.97475 286.746,0.641417 289.5,-0.5 Z"/></g>
<g><path style="opacity:0.993" fill="#95d5a7" d="M 281.5,3.5 C 281.5,92.8333 281.5,182.167 281.5,271.5C 292.833,271.5 304.167,271.5 315.5,271.5C 310.025,272.489 304.358,272.822 298.5,272.5C 298.5,294.833 298.5,317.167 298.5,339.5C 266.39,338.192 244.557,322.525 233,292.5C 232.462,287.853 231.295,283.52 229.5,279.5C 231.83,253.669 222.83,232.836 202.5,217C 190.167,208.502 176.5,204.002 161.5,203.5C 161.661,181.512 168.827,162.179 183,145.5C 197.94,130.221 213.773,116.055 230.5,103C 254.732,81.0082 266.566,53.5082 266,20.5C 268.933,12.7363 274.1,7.06968 281.5,3.5 Z"/></g>
<g><path style="opacity:1" fill="#80cb93" d="M 315.5,3.5 C 321.889,7.39021 326.722,12.7235 330,19.5C 331.931,31.1018 333.598,42.7685 335,54.5C 338.637,67.441 344.637,79.1077 353,89.5C 365.639,103.479 379.472,115.979 394.5,127C 402.698,134.863 410.531,143.03 418,151.5C 429.211,166.97 434.711,184.303 434.5,203.5C 404.531,204.988 383.365,219.321 371,246.5C 367.008,257.125 365.508,268.125 366.5,279.5C 359.051,316.608 336.385,336.941 298.5,340.5C 298.5,357.167 298.5,373.833 298.5,390.5C 284.746,390.985 271.079,390.151 257.5,388C 238.5,383 219.5,378 200.5,373C 184.655,369.926 168.655,368.426 152.5,368.5C 148.493,358.476 145.493,348.143 143.5,337.5C 180.83,344.584 207.997,331.251 225,297.5C 227.132,291.638 228.632,285.638 229.5,279.5C 231.295,283.52 232.462,287.853 233,292.5C 244.557,322.525 266.39,338.192 298.5,339.5C 298.5,317.167 298.5,294.833 298.5,272.5C 304.358,272.822 310.025,272.489 315.5,271.5C 315.5,182.167 315.5,92.8333 315.5,3.5 Z"/></g>
<g><path style="opacity:0.991" fill="#d2ecd6" d="M 161.5,203.5 C 176.5,204.002 190.167,208.502 202.5,217C 222.83,232.836 231.83,253.669 229.5,279.5C 228.632,285.638 227.132,291.638 225,297.5C 207.997,331.251 180.83,344.584 143.5,337.5C 118.162,329.894 101.996,313.227 95,287.5C 89.492,256.702 99.3254,232.202 124.5,214C 135.836,206.943 148.169,203.443 161.5,203.5 Z"/></g>
<g><path style="opacity:0.991" fill="#adddb9" d="M 434.5,203.5 C 471.629,205.795 494.129,225.129 502,261.5C 505.023,295.3 491.523,319.8 461.5,335C 458.568,336.145 455.568,336.978 452.5,337.5C 419.229,344.608 393.395,333.942 375,305.5C 370.822,297.136 367.989,288.469 366.5,279.5C 365.508,268.125 367.008,257.125 371,246.5C 383.365,219.321 404.531,204.988 434.5,203.5 Z"/></g>
<g><path style="opacity:1" fill="#59585e" d="M 155.5,249.5 C 175.489,248.323 184.989,257.656 184,277.5C 177.008,293.388 165.508,297.888 149.5,291C 137.485,279.841 136.485,267.841 146.5,255C 149.596,253.128 152.596,251.295 155.5,249.5 Z"/></g>
<g><path style="opacity:1" fill="#46454a" d="M 427.5,249.5 C 447.832,248 457.332,257.333 456,277.5C 451.467,290.523 442.3,296.023 428.5,294C 413.799,287.562 408.966,276.729 414,261.5C 417.454,256.206 421.954,252.206 427.5,249.5 Z"/></g>
<g><path style="opacity:1" fill="#6dc180" d="M 366.5,279.5 C 367.989,288.469 370.822,297.136 375,305.5C 393.395,333.942 419.229,344.608 452.5,337.5C 450.879,348.332 447.879,358.666 443.5,368.5C 430.088,368.114 416.754,368.948 403.5,371C 382.385,375.862 361.385,381.196 340.5,387C 326.635,389.814 312.635,390.981 298.5,390.5C 298.5,373.833 298.5,357.167 298.5,340.5C 336.385,336.941 359.051,316.608 366.5,279.5 Z"/></g>
<g><path style="opacity:0.969" fill="#eaafd0" d="M 203.5,441.5 C 207.189,438.279 210.022,434.279 212,429.5C 214.577,424.113 216.077,418.446 216.5,412.5C 227.858,415.838 239.191,418.838 250.5,421.5C 247.015,435.799 241.348,449.132 233.5,461.5C 214.137,484.701 189.47,499.534 159.5,506C 148.426,508.29 137.426,510.123 126.5,511.5C 114.5,511.5 102.5,511.5 90.5,511.5C 53.6571,504.976 28.1571,484.309 14,449.5C 1.07083,412.385 8.90416,380.552 37.5,354C 63.1831,334.602 90.8497,331.269 120.5,344C 152.412,364.733 162.246,393.233 150,429.5C 133.092,457.583 108.925,466.75 77.5,457C 59.1296,447.435 49.4629,432.268 48.5,411.5C 60.1667,411.5 71.8333,411.5 83.5,411.5C 85.9608,423.898 93.2941,428.398 105.5,425C 120.121,417.48 124.288,405.98 118,390.5C 109.718,375.904 97.2177,369.737 80.5,372C 57.1679,377.996 44.8345,392.996 43.5,417C 46.0532,448.558 62.7199,468.225 93.5,476C 125.518,479.043 155.852,473.376 184.5,459C 191.749,454.062 198.083,448.229 203.5,441.5 Z"/></g>
<g><path style="opacity:1" fill="#477e48" d="M 152.5,368.5 C 168.655,368.426 184.655,369.926 200.5,373C 219.5,378 238.5,383 257.5,388C 271.079,390.151 284.746,390.985 298.5,390.5C 298.5,401.833 298.5,413.167 298.5,424.5C 303.833,424.5 309.167,424.5 314.5,424.5C 309.36,425.488 304.026,425.821 298.5,425.5C 282.385,425.397 266.385,424.063 250.5,421.5C 239.191,418.838 227.858,415.838 216.5,412.5C 201.644,407.28 186.311,404.28 170.5,403.5C 163.212,392.593 157.212,380.926 152.5,368.5 Z"/></g>
<g><path style="opacity:1" fill="#417242" d="M 443.5,368.5 C 439.314,381.209 433.314,392.875 425.5,403.5C 415.048,404.131 404.714,405.631 394.5,408C 378.937,412.744 363.27,417.077 347.5,421C 336.569,422.863 325.569,424.029 314.5,424.5C 309.167,424.5 303.833,424.5 298.5,424.5C 298.5,413.167 298.5,401.833 298.5,390.5C 312.635,390.981 326.635,389.814 340.5,387C 361.385,381.196 382.385,375.862 403.5,371C 416.754,368.948 430.088,368.114 443.5,368.5 Z"/></g>
<g><path style="opacity:0.961" fill="#7fca92" d="M 170.5,403.5 C 186.311,404.28 201.644,407.28 216.5,412.5C 216.077,418.446 214.577,424.113 212,429.5C 210.022,434.279 207.189,438.279 203.5,441.5C 191.065,430.066 180.065,417.399 170.5,403.5 Z"/></g>
<g><path style="opacity:1" fill="#6dc080" d="M 425.5,403.5 C 398.556,445.483 360.223,469.483 310.5,475.5C 306.5,475.5 302.5,475.5 298.5,475.5C 298.5,458.833 298.5,442.167 298.5,425.5C 304.026,425.821 309.36,425.488 314.5,424.5C 325.569,424.029 336.569,422.863 347.5,421C 363.27,417.077 378.937,412.744 394.5,408C 404.714,405.631 415.048,404.131 425.5,403.5 Z"/></g>
<g><path style="opacity:0.985" fill="#80ca92" d="M 250.5,421.5 C 266.385,424.063 282.385,425.397 298.5,425.5C 298.5,442.167 298.5,458.833 298.5,475.5C 302.5,475.5 306.5,475.5 310.5,475.5C 283.627,478.275 257.961,473.608 233.5,461.5C 241.348,449.132 247.015,435.799 250.5,421.5 Z"/></g>
</svg>
