<?xml version="1.0" encoding="UTF-8"?>
<!DOCTYPE svg PUBLIC "-//W3C//DTD SVG 1.1//EN" "http://www.w3.org/Graphics/SVG/1.1/DTD/svg11.dtd">
<svg xmlns="http://www.w3.org/2000/svg" version="1.1" width="512px" height="512px" style="shape-rendering:geometricPrecision; text-rendering:geometricPrecision; image-rendering:optimizeQuality; fill-rule:evenodd; clip-rule:evenodd" xmlns:xlink="http://www.w3.org/1999/xlink">
<g><path style="opacity:0.982" fill="#c12929" d="M 471.5,98.5 C 466.149,97.9631 460.816,97.2965 455.5,96.5C 455.631,78.5904 448.298,64.7571 433.5,55C 426.206,51.0698 418.54,48.2364 410.5,46.5C 401.23,22.4389 408.23,16.1056 431.5,27.5C 436.05,25.3926 440.717,23.5592 445.5,22C 453.158,20.2461 458.324,23.0795 461,30.5C 462.14,34.6237 462.64,38.6237 462.5,42.5C 472.129,38.1379 479.629,40.4713 485,49.5C 486.126,55.4531 484.793,60.7864 481,65.5C 478.833,67.6667 476.667,69.8333 474.5,72C 478.111,78.0362 479.278,84.5362 478,91.5C 476.673,94.6587 474.506,96.992 471.5,98.5 Z"/></g>
<g><path style="opacity:0.997" fill="#f3ccaa" d="M 410.5,46.5 C 418.54,48.2364 426.206,51.0698 433.5,55C 448.298,64.7571 455.631,78.5904 455.5,96.5C 449.933,103.955 444.599,111.621 439.5,119.5C 425.109,118.396 414.276,124.063 407,136.5C 402.069,144.386 400.236,152.72 401.5,161.5C 404.825,187.432 407.492,213.432 409.5,239.5C 406.916,259.29 402.082,278.623 395,297.5C 388.72,311.878 379.22,323.711 366.5,333C 355.631,339.6 344.631,345.933 333.5,352C 324.552,359.942 316.719,368.775 310,378.5C 305.371,384.135 299.871,388.635 293.5,392C 279.833,392.667 266.167,392.667 252.5,392C 242.889,390.86 234.556,387.027 227.5,380.5C 221.76,374.262 216.593,367.595 212,360.5C 209.408,357.238 206.241,354.738 202.5,353C 185.742,348.701 168.742,345.701 151.5,344C 136.998,339.084 123.665,332.084 111.5,323C 96.3995,309.965 88.3995,293.465 87.5,273.5C 68.7364,271.078 55.7364,261.078 48.5,243.5C 21.7281,219.642 16.0614,191.308 31.5,158.5C 29,147.167 26.5,135.833 24,124.5C 21.3118,104.518 29.9785,93.1848 50,90.5C 65.4062,91.8454 80.5729,94.6787 95.5,99C 111.405,105.198 123.572,115.698 132,130.5C 141.634,149.401 149.3,169.068 155,189.5C 163.53,205.178 176.697,211.345 194.5,208C 242.017,196.33 281.517,171.83 313,134.5C 321.983,122.195 327.983,108.528 331,93.5C 343.544,62.7098 366.544,46.7098 400,45.5C 403.534,45.6352 407.034,45.9685 410.5,46.5 Z"/></g>
<g><path style="opacity:1" fill="#060504" d="M 408.5,72.5 C 420.361,71.1848 424.861,76.1848 422,87.5C 416.591,93.5739 410.925,93.9072 405,88.5C 402.156,82.1808 403.323,76.8475 408.5,72.5 Z"/></g>
<g><path style="opacity:0.974" fill="#edbf36" d="M 455.5,96.5 C 460.816,97.2965 466.149,97.9631 471.5,98.5C 484.369,104.222 490.036,114.222 488.5,128.5C 472.499,125.833 456.499,123.166 440.5,120.5C 439.833,120.5 439.5,120.167 439.5,119.5C 444.599,111.621 449.933,103.955 455.5,96.5 Z"/></g>
<g><path style="opacity:0.98" fill="#c12a29" d="M 439.5,119.5 C 439.5,120.167 439.833,120.5 440.5,120.5C 441.604,134.891 435.937,145.724 423.5,153C 416.641,157.119 409.308,159.952 401.5,161.5C 400.236,152.72 402.069,144.386 407,136.5C 414.276,124.063 425.109,118.396 439.5,119.5 Z"/></g>
<g><path style="opacity:1" fill="#f4c59c" d="M 78.5,119.5 C 82.8333,119.5 87.1667,119.5 91.5,119.5C 91.8047,124.762 91.4714,129.928 90.5,135C 80.9813,135.282 71.9813,137.449 63.5,141.5C 61.0791,137.66 58.9125,133.66 57,129.5C 56.2506,128.365 56.4173,127.365 57.5,126.5C 64.4627,123.685 71.4627,121.352 78.5,119.5 Z"/></g>
<g><path style="opacity:1" fill="#f4c59c" d="M 320.5,172.5 C 325.367,173.931 330.033,175.931 334.5,178.5C 326.739,196.768 315.739,213.268 301.5,228C 294.521,234.823 286.188,238.989 276.5,240.5C 269.28,240.309 264.113,236.975 261,230.5C 260.249,225.428 260.582,220.428 262,215.5C 264.235,208.789 267.235,202.456 271,196.5C 272.049,195.483 273.216,195.316 274.5,196C 278.327,198.337 281.993,200.837 285.5,203.5C 281.686,209.782 279.02,216.448 277.5,223.5C 281.187,222.824 284.52,221.324 287.5,219C 301.464,205.547 312.464,190.047 320.5,172.5 Z"/></g>
<g><path style="opacity:1" fill="#f4c59c" d="M 377.5,217.5 C 382.085,220.414 386.085,224.08 389.5,228.5C 377.449,238.919 363.449,245.419 347.5,248C 331.089,249.92 323.589,242.753 325,226.5C 325.885,224 327.052,221.667 328.5,219.5C 332.5,221.5 336.5,223.5 340.5,225.5C 341.363,227.771 341.363,230.105 340.5,232.5C 351.931,231.443 362.598,227.943 372.5,222C 374.618,220.951 376.284,219.451 377.5,217.5 Z"/></g>
<g><path style="opacity:1" fill="#f4c59c" d="M 409.5,239.5 C 410.743,267.043 406.243,293.71 396,319.5C 384.919,343.912 366.752,360.745 341.5,370C 337.656,372.422 333.99,375.089 330.5,378C 320.931,388.479 311.598,399.146 302.5,410C 298.579,413.696 293.913,415.53 288.5,415.5C 277.5,415.5 266.5,415.5 255.5,415.5C 249.633,414.927 243.967,413.594 238.5,411.5C 231.976,407.488 226.142,402.488 221,396.5C 216.93,389.76 212.096,383.593 206.5,378C 195.267,373.442 183.6,370.608 171.5,369.5C 148.298,367.732 127.631,359.565 109.5,345C 95.2389,331.978 87.9056,315.811 87.5,296.5C 67.3386,294.499 54.1719,283.832 48,264.5C 47.3255,257.472 47.4921,250.472 48.5,243.5C 55.7364,261.078 68.7364,271.078 87.5,273.5C 88.3995,293.465 96.3995,309.965 111.5,323C 123.665,332.084 136.998,339.084 151.5,344C 168.742,345.701 185.742,348.701 202.5,353C 206.241,354.738 209.408,357.238 212,360.5C 216.593,367.595 221.76,374.262 227.5,380.5C 234.556,387.027 242.889,390.86 252.5,392C 266.167,392.667 279.833,392.667 293.5,392C 299.871,388.635 305.371,384.135 310,378.5C 316.719,368.775 324.552,359.942 333.5,352C 344.631,345.933 355.631,339.6 366.5,333C 379.22,323.711 388.72,311.878 395,297.5C 402.082,278.623 406.916,259.29 409.5,239.5 Z"/></g>
<g><path style="opacity:0.996" fill="#e8bb93" d="M 171.5,369.5 C 183.6,370.608 195.267,373.442 206.5,378C 212.096,383.593 216.93,389.76 221,396.5C 226.142,402.488 231.976,407.488 238.5,411.5C 226.932,416.354 214.932,420.021 202.5,422.5C 202.53,421.503 202.03,420.836 201,420.5C 192.441,416.804 183.941,412.97 175.5,409C 173.334,407.322 172.001,405.155 171.5,402.5C 171.5,391.5 171.5,380.5 171.5,369.5 Z"/></g>
<g><path style="opacity:0.986" fill="#edbe36" d="M 171.5,402.5 C 172.001,405.155 173.334,407.322 175.5,409C 183.941,412.97 192.441,416.804 201,420.5C 202.03,420.836 202.53,421.503 202.5,422.5C 197.481,441.243 192.147,459.909 186.5,478.5C 197.485,479.332 208.485,479.832 219.5,480C 221.333,480.5 222.5,481.667 223,483.5C 223.817,486.964 223.483,490.298 222,493.5C 221.25,494.126 220.416,494.626 219.5,495C 207.5,495.167 195.5,495.333 183.5,495.5C 170.742,495.649 158.075,495.149 145.5,494C 140.963,485.253 143.463,480.086 153,478.5C 158.884,452.967 165.051,427.634 171.5,402.5 Z"/></g>
<g><path style="opacity:0.993" fill="#f4c59c" d="M 130.5,438.5 C 126.386,446.142 120.719,452.642 113.5,458C 85.4817,467.551 59.4817,463.551 35.5,446C 32.0311,442.188 28.6977,438.355 25.5,434.5C 30.5068,426.331 37.5068,420.498 46.5,417C 65.5866,408.988 85.2533,406.988 105.5,411C 118.237,416.234 126.57,425.4 130.5,438.5 Z"/></g>
<g><path style="opacity:0.98" fill="#edbe36" d="M 255.5,415.5 C 266.5,415.5 277.5,415.5 288.5,415.5C 292.805,436.526 297.305,457.526 302,478.5C 311.756,479.32 321.59,479.82 331.5,480C 333.333,480.5 334.5,481.667 335,483.5C 335.667,486.167 335.667,488.833 335,491.5C 334.5,493.333 333.333,494.5 331.5,495C 310.167,495.667 288.833,495.667 267.5,495C 266.584,494.626 265.75,494.126 265,493.5C 263.517,490.298 263.183,486.964 264,483.5C 265.109,481.185 266.943,479.685 269.5,479C 264.134,458.006 259.467,436.839 255.5,415.5 Z"/></g>
<g><path style="opacity:1" fill="#f4bd8e" d="M 25.5,434.5 C 28.6977,438.355 32.0311,442.188 35.5,446C 59.4817,463.551 85.4817,467.551 113.5,458C 120.719,452.642 126.386,446.142 130.5,438.5C 134.625,459.75 126.959,474.917 107.5,484C 82.3167,489.537 58.9834,485.203 37.5,471C 24.5568,461.672 20.5568,449.505 25.5,434.5 Z"/></g>
</svg>
