<svg height="512" viewBox="0 0 58 58" width="512" xmlns="http://www.w3.org/2000/svg"><g id="Page-1" fill="none" fill-rule="evenodd"><g id="002---Investment-Account"><path id="Path" d="m58 10v43c0 2.7614237-2.2385763 5-5 5h-48c-1.32608245 0-2.59785201-.5267842-3.53553391-1.4644661-.93768189-.9376819-1.46446609-2.2094515-1.46446609-3.5355339v-43z" fill="#b0d3f0"/><path id="Path" d="m58 5v7h-58v-7c0-2.76142375 2.23857625-5 5-5h48c1.3260824 0 2.597852.5267842 3.5355339 1.46446609.9376819.9376819 1.4644661 2.20945146 1.4644661 3.53553391z" fill="#3b97d3"/><circle id="Oval" cx="6" cy="6" fill="#65ddb9" r="2"/><circle id="Oval" cx="14" cy="6" fill="#f3d55b" r="2"/><circle id="Oval" cx="22" cy="6" fill="#ff5364" r="2"/><path id="Path" d="m52 8c1.1045695 0 2-.8954305 2-2s-.8954305-2-2-2h-10c-1.1045695 0-2 .8954305-2 2s.8954305 2 2 2z" fill="#2980ba"/><path id="Path" d="m8 35.49c-3.58019591-2.9535109-4.92140612-7.8363546-3.35224843-12.2042802s5.71101693-7.2810012 10.35224843-7.2810012 8.7830907 2.9130756 10.3522484 7.2810012.2279475 9.2507693-3.3522484 12.2042802z" fill="#2980ba"/><rect id="Rectangle" fill="#fff" height="22" rx="2" width="22" x="32" y="16"/><path id="Path" d="m50 35h-13c-1.1045695 0-2-.8954305-2-2v-13c0-.5522847.4477153-1 1-1s1 .4477153 1 1v13h13c.5522847 0 1 .4477153 1 1s-.4477153 1-1 1z" fill="#4482c3"/><path id="Path" d="m40 30c-.5522847 0-1-.4477153-1-1v-3c0-.5522847.4477153-1 1-1s1 .4477153 1 1v3c0 .5522847-.4477153 1-1 1z" fill="#4fba6f"/><path id="Path" d="m44 29c-.5522847 0-1-.4477153-1-1v-3c0-.5522847.4477153-1 1-1s1 .4477153 1 1v3c0 .5522847-.4477153 1-1 1z" fill="#4fba6f"/><path id="Path" d="m48 31c-.5522847 0-1-.4477153-1-1v-3c0-.5522847.4477153-1 1-1s1 .4477153 1 1v3c0 .5522847-.4477153 1-1 1z" fill="#ff5364"/><path id="Path" d="m47.9 23.677c-.4328814.0008713-.8542177-.1395742-1.2-.4l-2.8-2.107-3.453 1.73c-.4942949.2468713-1.0951287.0462949-1.342-.448s-.0462949-1.0951287.448-1.342l3.447-1.728c.6769778-.3405311 1.4885056-.2676719 2.094.188l2.812 2.11 1.387-1.387c.3923789-.3789722 1.0160848-.3735524 1.4018186.0121814s.3911536 1.0094397.0121814 1.4018186l-1.387 1.387c-.3769466.3754724-.8879633.5852771-1.42.583z" fill="#ff5364"/><rect id="Rectangle" fill="#3b97d3" height="4" rx="2" width="18" x="6" y="42"/><g fill="#285680"><path id="Path" d="m23 51h-16c-.55228475 0-1-.4477153-1-1s.44771525-1 1-1h16c.5522847 0 1 .4477153 1 1s-.4477153 1-1 1z"/><path id="Path" d="m23 55h-16c-.55228475 0-1-.4477153-1-1s.44771525-1 1-1h16c.5522847 0 1 .4477153 1 1s-.4477153 1-1 1z"/><path id="Path" d="m53 51h-13c-.5522847 0-1-.4477153-1-1s.4477153-1 1-1h13c.5522847 0 1 .4477153 1 1s-.4477153 1-1 1z"/><path id="Path" d="m53 47h-13c-.5522847 0-1-.4477153-1-1s.4477153-1 1-1h13c.5522847 0 1 .4477153 1 1s-.4477153 1-1 1z"/><path id="Path" d="m53 43h-13c-.5522847 0-1-.4477153-1-1s.4477153-1 1-1h13c.5522847 0 1 .4477153 1 1s-.4477153 1-1 1z"/><path id="Path" d="m53 55h-13c-.5522847 0-1-.4477153-1-1s.4477153-1 1-1h13c.5522847 0 1 .4477153 1 1s-.4477153 1-1 1z"/></g><circle id="Oval" cx="15" cy="25" fill="#fdd7ad" r="5"/><path id="Path" d="m37 49.982c0-1.6568542-1.3431458-3-3-3-.4851707-.000473-.9000069-.3491365-.9839455-.8269912-.0839386-.4778548.1872399-.9470217.6432053-1.1128119.4559653-.1657902.9651545.0196329 1.2077402.4398031.2843876.4596821.882589.61017 1.3506397.3397768s.6365131-.8637835.3803603-1.3397768c-.3630242-.6087308-.9298468-1.0692742-1.6-1.3v-1.2c0-.5522847-.4477153-1-1-1s-1 .4477153-1 1v1.184c-1.3765475.4848523-2.2026937 1.8918441-1.9553873 3.330178s1.49595 2.4885874 2.9553873 2.485822c.4851707.000473.9000069.3491365.9839455.8269912.0839386.4778548-.1872399.9470217-.6432053 1.1128119-.4559653.1657902-.9651545-.0196329-1.2077402-.4398031-.1727115-.3209394-.5063525-.5225002-.8707953-.5260692-.3644429-.003569-.7019673.1914191-.880931.5089145s-.1710225.7072132.0207263 1.0171547c.3630242.6087308.9298468 1.0692742 1.6 1.3v1.2c0 .5522847.4477153 1 1 1s1-.4477153 1-1v-1.182c1.1950395-.4225016 1.9955917-1.5504798 2-2.818z" fill="#14a085"/><path id="Path" d="m22 34v1.49c-4.0666633 3.3466494-9.9333367 3.3466494-14 0v-1.49c0-2.209139 1.790861-4 4-4h6c2.209139 0 4 1.790861 4 4z" fill="#26b99a"/></g></g></svg>